<?xml version="1.0" encoding="UTF-8" standalone="no"?>
<!-- Created with Inkscape (http://www.inkscape.org/) -->
<svg
   xmlns:dc="http://purl.org/dc/elements/1.1/"
   xmlns:cc="http://creativecommons.org/ns#"
   xmlns:rdf="http://www.w3.org/1999/02/22-rdf-syntax-ns#"
   xmlns:svg="http://www.w3.org/2000/svg"
   xmlns="http://www.w3.org/2000/svg"
   xmlns:sodipodi="http://sodipodi.sourceforge.net/DTD/sodipodi-0.dtd"
   xmlns:inkscape="http://www.inkscape.org/namespaces/inkscape"
   width="419.05945"
   height="294.42963"
   id="svg2"
   sodipodi:version="0.32"
   inkscape:version="0.46"
   sodipodi:docname="logo.svg"
   inkscape:output_extension="org.inkscape.output.svg.inkscape"
   version="1.0"
   inkscape:export-filename="/home/jtolds/todlo/logo-small.png"
   inkscape:export-xdpi="274.89227"
   inkscape:export-ydpi="274.89227">
  <defs
     id="defs4">
    <inkscape:perspective
       sodipodi:type="inkscape:persp3d"
       inkscape:vp_x="0 : 526.18109 : 1"
       inkscape:vp_y="0 : 1000 : 0"
       inkscape:vp_z="744.09448 : 526.18109 : 1"
       inkscape:persp3d-origin="372.04724 : 350.78739 : 1"
       id="perspective10" />
  </defs>
  <sodipodi:namedview
     id="base"
     pagecolor="#ffffff"
     bordercolor="#666666"
     borderopacity="1.0"
     gridtolerance="10000"
     guidetolerance="10"
     objecttolerance="10"
     inkscape:pageopacity="0.0"
     inkscape:pageshadow="2"
     inkscape:zoom="1.9781744"
     inkscape:cx="122.84054"
     inkscape:cy="87.547807"
     inkscape:document-units="px"
     inkscape:current-layer="layer1"
     showgrid="false"
     inkscape:window-width="1086"
     inkscape:window-height="717"
     inkscape:window-x="4"
     inkscape:window-y="55" />
  <metadata
     id="metadata7">
    <rdf:RDF>
      <cc:Work
         rdf:about="">
        <dc:format>image/svg+xml</dc:format>
        <dc:type
           rdf:resource="http://purl.org/dc/dcmitype/StillImage" />
      </cc:Work>
    </rdf:RDF>
  </metadata>
  <g
     inkscape:label="Layer 1"
     inkscape:groupmode="layer"
     id="layer1"
     transform="translate(-15.498178,-29.795393)">
    <rect
       style="fill:#0c50ff;fill-opacity:1;stroke:#ff7f22;stroke-width:0.06382240000000000;stroke-miterlimit:4;stroke-dasharray:none;stroke-opacity:1"
       id="rect2407"
       width="418.93445"
       height="294.30463"
       x="15.560678"
       y="29.857893" />
    <path
       style="fill:#ff7f22;fill-opacity:1;stroke:#ff7f22;stroke-width:0.67797166;stroke-miterlimit:4;stroke-dasharray:none;stroke-opacity:1"
       d="M 45.925112,115.2067 L 45.785973,113.64214 L 49.270142,112.18002 C 51.186322,111.37592 52.671394,110.65588 52.570172,110.57974 C 52.469103,110.50373 50.818724,110.53921 48.902918,110.65846 L 45.419555,110.87551 L 48.724693,108.75365 C 55.140563,104.63468 55.773894,104.20836 55.634356,104.10357 C 55.556786,104.04544 53.194913,104.82912 50.385794,105.84529 C 47.576541,106.86148 45.172788,107.70795 45.044049,107.72627 C 44.91531,107.74458 44.582907,106.16259 44.305282,104.21083 C 44.027658,102.25907 43.854755,100.65454 43.921205,100.64509 C 43.987521,100.63565 52.736225,98.263351 63.362795,95.373162 C 73.989383,92.483107 82.849758,90.094783 83.0526,90.06593 C 83.314642,90.028656 83.558401,90.610984 83.895665,92.080793 C 84.156694,93.217814 84.320394,94.214601 84.259347,94.295736 C 84.198453,94.376987 82.000729,95.282494 79.375636,96.307959 C 76.750408,97.333443 74.549806,98.242784 74.485342,98.328787 C 74.420859,98.414657 75.830058,98.355139 77.61714,98.196536 C 79.404068,98.037818 81.76656,97.850644 82.867186,97.780509 L 84.868119,97.653119 L 85.018627,98.711223 C 85.185824,99.886655 85.231444,99.854007 81.606582,101.15508 C 80.732238,101.469 79.928589,101.82738 79.820919,101.95144 C 79.713133,102.07565 81.024672,102.26546 82.735445,102.37341 L 85.845875,102.56948 L 86.186266,104.96249 L 86.526637,107.35538 L 85.116679,107.72152 C 82.83406,108.31423 47.338505,116.59013 46.672525,116.68486 C 46.104945,116.7656 46.054803,116.66631 45.925112,115.2067 L 45.925112,115.2067 z M 64.101897,103.33452 C 64.514624,102.72359 64.507987,102.69427 63.843726,102.19544 L 63.161831,101.68338 L 62.649768,102.36528 C 62.150948,103.02954 62.152751,103.05955 62.719596,103.53114 C 63.039616,103.79747 63.386078,104.00321 63.489714,103.98847 C 63.59335,103.97373 63.868836,103.67952 64.101897,103.33452 L 64.101897,103.33452 z"
       id="path2387"
       inkscape:export-filename="/home/jtolds/todlo/apps/todlo/static/logo.png"
       inkscape:export-xdpi="196.09338"
       inkscape:export-ydpi="196.09338" />
    <path
       style="fill:#ff7f22;fill-opacity:1;stroke:#ff7f22;stroke-width:0.67797166;stroke-miterlimit:4;stroke-dasharray:none;stroke-opacity:1"
       d="M 62.294996,142.77392 C 60.899579,132.96384 59.599258,123.24364 59.405446,121.1734 L 59.05286,117.40924 L 60.332545,117.41266 C 61.036378,117.41458 61.659155,117.44652 61.716603,117.48354 C 61.773936,117.52072 62.274166,119.13485 62.82824,121.07071 C 63.382315,123.00656 63.901422,124.63978 63.981771,124.70012 C 64.130203,124.81158 64.084701,123.18126 63.823302,119.02598 C 63.72326,117.43395 63.790475,116.66345 64.041649,116.52377 C 64.241414,116.41263 64.480961,116.37896 64.57421,116.44911 C 64.667574,116.5191 65.111729,117.79004 65.561298,119.27332 C 66.010887,120.75674 66.422225,121.91251 66.475423,121.84166 C 66.55856,121.73095 66.66665,116.86298 66.59873,116.28727 C 66.585413,116.1744 67.664362,115.92683 68.996321,115.73737 L 71.418066,115.39289 L 72.15886,119.39534 C 72.566213,121.59667 73.978985,130.51295 75.298427,139.20927 C 76.617734,147.9056 77.874601,155.77879 78.091287,156.70518 L 78.48526,158.38975 L 76.734193,158.63883 L 74.983127,158.8879 L 73.633828,153.85813 C 72.891754,151.09165 72.187432,148.74848 72.068523,148.65103 C 71.949614,148.55359 71.953606,150.74615 72.07748,153.52345 C 72.201201,156.30064 72.271647,158.7967 72.233974,159.07009 C 72.189406,159.39418 71.894506,159.60582 71.386665,159.67805 C 70.473812,159.8079 70.647718,160.19089 68.714166,153.79204 C 67.959791,151.29534 67.297975,149.21826 67.243503,149.17616 C 67.045162,149.0229 67.00758,150.22897 67.066156,154.86191 C 67.130075,159.91949 67.031686,160.29752 65.598776,160.50134 L 64.832114,160.61039 L 62.294996,142.77392 z"
       id="path3159"
       inkscape:export-filename="/home/jtolds/todlo/apps/todlo/static/logo.png"
       inkscape:export-xdpi="196.09338"
       inkscape:export-ydpi="196.09338" />
    <path
       style="fill:#ff7f22;fill-opacity:1;stroke:#ff7f22;stroke-width:0.67797166;stroke-miterlimit:4;stroke-dasharray:none;stroke-opacity:1"
       d="M 126.6292,147.47419 C 120.38213,147.24055 114.73835,144.84041 109.6836,140.26785 C 104.65789,135.7213 101.88047,131.09463 100.41274,124.824 C 98.491701,116.61729 100.04277,109.15905 104.74684,103.98424 C 106.62487,101.91828 110.6548,99.159046 113.47378,98.009035 C 118.36354,96.014305 124.62599,95.00518 129.30964,95.457099 C 136.60105,96.160833 142.27403,100.43097 145.34006,107.52377 C 146.58486,110.4035 147.76013,118.20954 147.49401,121.83079 C 146.94974,129.238 144.23348,137.0885 140.66826,141.55882 C 137.15789,145.96025 132.99936,147.71237 126.6292,147.47419 L 126.6292,147.47419 z M 136.24782,141.25683 C 137.43077,140.69863 138.13095,140.16652 138.53621,139.51749 C 139.58835,137.83265 139.18203,137.67789 137.24445,139.02575 C 136.2741,139.70079 134.45235,140.71621 133.19616,141.28235 C 131.93982,141.84838 130.86162,142.37852 130.80015,142.46054 C 130.46368,142.90859 134.758,141.95988 136.24782,141.25683 L 136.24782,141.25683 z M 135.06074,137.925 C 136.48617,136.9224 137.17417,136.22082 137.64759,135.28749 C 138.00226,134.58813 138.22481,133.96508 138.14216,133.90301 C 138.05951,133.84095 137.02266,134.46245 135.83817,135.28423 C 133.40455,136.97219 131.56626,137.75001 129.09565,138.13705 C 127.63881,138.36523 127.40804,138.47406 127.4692,138.90404 C 127.6114,139.90375 128.72265,140.15574 131.00716,139.70629 C 132.80326,139.35302 133.40909,139.08674 135.06074,137.925 L 135.06074,137.925 z M 109.85248,136.35488 C 108.45224,134.46501 106.32157,130.11585 105.0602,126.57273 C 104.48023,124.94392 103.91834,123.68397 103.81158,123.77298 C 103.47241,124.0557 104.4213,129.69342 105.06215,131.20331 C 105.98729,133.38304 107.61074,135.58848 109.22012,136.85159 C 110.01766,137.47759 110.71468,137.93039 110.76912,137.85773 C 110.82372,137.78518 110.41114,137.10881 109.85248,136.35488 z M 126.72845,134.67561 C 131.66273,132.8793 135.20189,128.6899 135.78798,123.95197 C 136.13587,121.13865 135.41883,117.82022 133.99079,115.63574 C 131.77293,112.24305 128.39273,110.66755 124.10967,111.02999 C 119.79697,111.395 116.57407,113.08114 114.24376,116.19151 C 111.90933,119.30754 111.29823,123.06086 112.44459,127.2416 C 113.833,132.30471 116.90072,135.11893 121.41037,135.46645 C 123.49834,135.62744 124.53898,135.47257 126.72845,134.67561 L 126.72845,134.67561 z M 111.97673,134.47933 C 110.43311,132.26897 109.39478,129.67282 107.52485,123.34669 L 107.24845,122.41167 L 106.9662,123.20619 C 106.2209,125.30442 107.07846,128.77789 109.37593,132.96609 C 110.2609,134.57945 111.63628,135.85064 112.38213,135.74455 C 112.74915,135.69235 112.68584,135.49468 111.97673,134.47933 L 111.97673,134.47933 z M 135.20277,110.01004 C 134.30342,107.33756 131.13714,105.5058 128.15117,105.93053 L 126.84807,106.11589 L 128.63721,106.96254 C 129.62121,107.42821 131.4698,108.53773 132.74529,109.42828 C 134.02064,110.31885 135.17084,111.03822 135.30128,111.02706 C 135.43159,111.01592 135.3873,110.5582 135.20277,110.01004 L 135.20277,110.01004 z M 139.98136,107.52835 C 139.33963,105.63002 138.23772,104.25556 136.08759,102.67164 C 133.4791,100.74998 130.46321,99.7435 127.868,99.928578 L 125.98243,100.06298 L 129.82131,101.59816 C 134.20553,103.35159 137.21481,105.26582 139.0473,107.46673 C 139.72569,108.28156 140.30866,108.91082 140.34298,108.86513 C 140.37718,108.81959 140.2145,108.21806 139.98136,107.52835 L 139.98136,107.52835 z"
       id="path3161"
       inkscape:export-filename="/home/jtolds/todlo/apps/todlo/static/logo.png"
       inkscape:export-xdpi="196.09338"
       inkscape:export-ydpi="196.09338" />
    <path
       style="fill:#ff7f22;fill-opacity:1;stroke:#ff7f22;stroke-width:0.67797166;stroke-miterlimit:4;stroke-dasharray:none;stroke-opacity:1"
       d="M 177.52829,141.5862 C 177.56811,141.3125 177.55112,139.59184 177.49057,137.76232 C 177.40776,135.26213 176.79825,130.57662 175.03641,118.89534 C 170.88883,91.395935 169.29559,79.811886 169.60455,79.400614 C 169.75769,79.196674 170.45245,78.794896 171.14857,78.507695 L 172.41404,77.985567 L 173.25738,80.404831 C 173.72125,81.735421 174.32218,83.460543 174.59292,84.23831 C 174.86352,85.016095 175.13197,85.589982 175.18931,85.513619 C 175.28132,85.391102 175.15187,78.770417 175.04024,77.886473 C 175.0165,77.698381 175.28355,77.503714 175.63379,77.453895 C 176.22352,77.37001 176.37168,77.615321 177.63737,80.770927 C 178.38907,82.645118 179.06743,84.62383 179.14484,85.168052 C 179.2263,85.740733 179.38785,86.072478 179.52818,85.95555 C 179.92194,85.627265 180.18594,83.173479 180.18948,79.81008 C 180.19471,74.739927 180.34708,74.36394 182.14163,74.990558 C 182.69131,75.18259 183.20448,75.688933 183.63305,76.462326 C 184.22336,77.52731 184.38551,78.454469 185.30825,86.046892 C 185.87024,90.669859 186.57678,97.487579 186.87864,101.19746 C 187.91312,113.91599 188.9924,123.60162 190.24659,131.42232 L 191.50213,139.2505 L 190.37688,139.41426 C 189.75792,139.50449 188.98565,139.69158 188.66077,139.83011 C 188.09275,140.07238 188.06035,140.01412 187.81928,138.3193 C 187.25519,134.35363 186.0056,128.23974 185.87016,128.78288 C 185.79247,129.09455 185.56152,131.81728 185.35694,134.83319 C 185.15236,137.8491 184.95311,140.36133 184.9143,140.41588 C 184.87534,140.47032 183.9204,140.71832 182.79213,140.96674 L 180.7408,141.41863 L 180.17969,137.62894 L 179.61858,133.83924 L 179.0523,137.88832 C 178.58138,141.25507 178.39916,141.94976 177.97092,142.01067 C 177.609,142.06215 177.4774,141.93611 177.52829,141.5862 L 177.52829,141.5862 z M 184.2108,128.61461 C 184.19789,128.52386 183.9365,128.33848 183.62984,128.20268 C 183.18696,128.00656 182.95702,128.0635 182.51212,128.48001 L 181.95202,129.00425 L 182.65144,129.42287 C 183.30789,129.81571 183.37813,129.80886 183.79263,129.31054 C 184.03557,129.01863 184.22371,128.70536 184.2108,128.61461 L 184.2108,128.61461 z M 179.37183,91.802391 C 179.85349,91.160978 179.30618,90.374205 178.3054,90.269075 C 177.78153,90.214166 177.44781,90.370517 177.09947,90.834231 L 176.61805,91.475472 L 177.62581,91.90886 C 178.8365,92.429525 178.90398,92.425405 179.37183,91.802391 L 179.37183,91.802391 z"
       id="path3163"
       inkscape:export-filename="/home/jtolds/todlo/apps/todlo/static/logo.png"
       inkscape:export-xdpi="196.09338"
       inkscape:export-ydpi="196.09338" />
    <path
       style="fill:#ff7f22;fill-opacity:1;stroke:#ff7f22;stroke-width:0.67797166;stroke-miterlimit:4;stroke-dasharray:none;stroke-opacity:1"
       d="M 158.76609,101.46784 L 158.51105,99.674889 L 160.17312,98.633562 C 161.08735,98.060867 162.09939,97.467137 162.42233,97.313962 C 162.74516,97.16094 162.9971,96.949658 162.98211,96.844277 C 162.95702,96.667882 159.66465,95.87056 158.13,95.66921 C 157.55446,95.593847 157.47107,95.45341 157.4724,94.563398 C 157.47317,94.002713 157.36628,92.2306 157.23489,90.625227 L 156.99586,87.706525 L 160.93175,86.666355 C 163.0965,86.094239 165.06068,85.541888 165.29678,85.43873 C 165.62441,85.295433 165.78624,85.479907 165.98049,86.217741 C 166.21516,87.108835 166.11905,87.334382 164.75121,89.100967 C 163.93502,90.154961 163.28732,91.158144 163.3118,91.330243 C 163.381,91.81674 164.71276,92.096666 166.0525,91.906096 L 167.26794,91.733209 L 167.9086,96.237197 L 168.54926,100.74119 L 167.25297,100.92722 C 166.13344,101.08783 163.20264,101.90327 159.95283,102.95829 L 159.02112,103.26079 L 158.76609,101.46784 z"
       id="path3165"
       inkscape:export-filename="/home/jtolds/todlo/apps/todlo/static/logo.png"
       inkscape:export-xdpi="196.09338"
       inkscape:export-ydpi="196.09338" />
    <path
       style="fill:#ff7f22;fill-opacity:1;stroke:#ff7f22;stroke-width:0.67797166;stroke-miterlimit:4;stroke-dasharray:none;stroke-opacity:1"
       d="M 194.42716,129.95413 L 193.30406,122.05849 L 194.98919,120.95691 C 197.14047,119.55058 199.83465,116.04235 200.54696,113.71982 C 201.60628,110.26569 201.10344,106.4851 199.18562,103.48498 C 198.0968,101.78173 195.52774,99.711755 193.01203,98.510728 C 191.08363,97.590197 190.93807,97.457508 190.59523,96.309526 C 190.05739,94.508045 189.35297,87.355706 189.26731,82.82509 C 189.20585,79.579545 189.27122,78.85669 189.63016,78.808371 C 189.87086,78.776051 191.04645,79.021079 192.24246,79.35291 C 200.59924,81.672013 207.78086,89.159341 211.68556,99.623526 C 212.80996,102.63707 213.94064,109.42185 213.86908,112.72686 C 213.64503,123.07285 208.26966,131.76452 199.40784,136.10979 C 198.08479,136.75858 196.67563,137.41537 196.27628,137.56955 L 195.55026,137.84977 L 194.42716,129.95413 z M 201.15234,96.890312 C 199.3157,93.523101 195.34377,91.71499 193.69058,93.493676 L 193.14847,94.076989 L 194.81277,94.616949 C 195.80851,94.939876 197.55887,95.93175 199.16972,97.085769 C 200.65062,98.146514 201.87645,98.855534 201.89371,98.661062 C 201.91111,98.466571 201.57741,97.669821 201.15234,96.890312 z M 204.60107,92.824845 C 202.98588,89.580762 198.77422,86.568775 195.66114,86.431156 C 194.60349,86.384516 192.27323,87.40105 192.34128,87.879492 C 192.35845,88.000177 192.9142,88.103006 193.57644,88.108103 C 195.1452,88.119843 197.98949,89.014731 199.17207,89.868369 C 199.68614,90.239541 201.25103,91.548972 202.64947,92.778128 C 205.34588,95.14842 205.76297,95.158393 204.6012,92.824826 L 204.60107,92.824845 z"
       id="path3167"
       inkscape:export-filename="/home/jtolds/todlo/apps/todlo/static/logo.png"
       inkscape:export-xdpi="196.09338"
       inkscape:export-ydpi="196.09338" />
    <path
       style="fill:#ff7f22;fill-opacity:1;stroke:#ff7f22;stroke-width:0.67797166;stroke-miterlimit:4;stroke-dasharray:none;stroke-opacity:1"
       d="M 231.53472,134.42254 C 231.49454,134.18145 230.3561,122.01651 229.00506,107.38929 L 226.54844,80.794469 L 227.85221,80.609016 L 229.15597,80.423564 L 229.74487,84.56362 C 230.06876,86.84065 230.41279,88.598754 230.50948,88.47064 C 230.60615,88.342392 230.82465,86.504683 230.99492,84.38663 L 231.30465,80.535656 L 232.12155,80.334953 C 232.93131,80.136087 232.94178,80.148021 233.32663,81.69529 C 233.5401,82.553791 233.97544,84.501331 234.29392,86.02298 C 234.61227,87.544648 234.95274,88.723099 235.05045,88.64168 C 235.14814,88.560126 235.33228,86.720593 235.45959,84.553731 C 235.5869,82.386869 235.75681,80.463625 235.83711,80.280044 C 235.93758,80.050454 236.59518,79.920894 237.9418,79.865346 L 239.90035,79.784663 L 240.00449,81.483483 C 240.06178,82.41775 241.09612,94.063632 242.30295,107.36314 C 244.51856,131.77638 244.52832,131.9692 243.56007,132.1198 C 243.17255,132.17999 243.07816,131.97373 241.97857,128.66288 C 241.50553,127.23896 241.05827,126.1513 240.98448,126.24589 C 240.91085,126.34059 240.80031,127.82712 240.73888,129.54922 L 240.62728,132.6805 L 238.49586,133.202 C 237.0494,133.55607 236.29265,133.63756 236.14121,133.45585 C 236.01852,133.30868 235.35222,131.70269 234.66062,129.88706 C 233.96917,128.07155 233.33152,126.69487 233.24386,126.82773 C 233.15622,126.96072 233.06522,128.45077 233.04158,130.139 C 233.01795,131.82737 232.97452,133.48144 232.94496,133.81476 C 232.87881,134.56389 231.64692,135.0948 231.53472,134.42254 L 231.53472,134.42254 z M 237.89026,125.12291 C 238.30312,124.51196 238.29648,124.48263 237.63207,123.9837 L 236.95017,123.47164 L 236.43811,124.15353 C 235.93931,124.81793 235.94111,124.84794 236.50796,125.31953 C 236.82796,125.58573 237.17456,125.79145 237.27806,125.77672 C 237.38169,125.76198 237.65718,125.46778 237.89026,125.12291 L 237.89026,125.12291 z"
       id="path3169"
       inkscape:export-filename="/home/jtolds/todlo/apps/todlo/static/logo.png"
       inkscape:export-xdpi="196.09338"
       inkscape:export-ydpi="196.09338" />
    <path
       style="fill:#ff7f22;fill-opacity:1;stroke:#ff7f22;stroke-width:0.67797166;stroke-miterlimit:4;stroke-dasharray:none;stroke-opacity:1"
       d="M 246.88078,126.71815 C 246.66667,125.21289 246.05827,116.89849 246.1529,116.77231 C 246.24917,116.64412 261.72778,112.55797 262.60239,112.42986 C 263.02648,112.36776 263.23922,112.50185 263.29064,112.86336 C 263.35043,113.28368 262.86514,113.63388 260.82824,114.64074 C 259.43282,115.3305 258.20303,116.00136 258.09503,116.13177 C 257.98716,116.26216 259.24157,116.26985 260.88253,116.14888 C 263.82912,115.93163 264.2855,116.03298 264.42258,116.93508 C 264.47585,117.28551 263.71485,117.64426 260.70746,118.68671 C 256.20989,120.24587 255.53756,120.6387 257.81484,120.37723 C 258.71909,120.27353 260.87027,120.06533 262.5952,119.91461 L 265.73125,119.64082 L 266.5124,121.44673 C 266.94186,122.44009 267.23447,123.33116 267.16237,123.42701 C 267.09042,123.52298 263.53336,124.31574 259.25787,125.18878 C 254.98238,126.06182 250.48174,126.99757 249.25667,127.26838 L 247.02907,127.76068 L 246.88078,126.71815 z"
       id="path3171"
       inkscape:export-filename="/home/jtolds/todlo/apps/todlo/static/logo.png"
       inkscape:export-xdpi="196.09338"
       inkscape:export-ydpi="196.09338" />
    <path
       style="fill:#ff7f22;fill-opacity:1;stroke:#ff7f22;stroke-width:0.67797166;stroke-miterlimit:4;stroke-dasharray:none;stroke-opacity:1"
       d="M 224.37395,132.95133 L 224.03114,130.54126 L 225.30506,129.70785 C 226.00573,129.24949 226.56574,128.78142 226.54957,128.66771 C 226.53339,128.55401 225.82299,128.40579 224.97099,128.33853 C 223.44121,128.21757 223.42006,128.20373 223.28078,127.22456 C 223.14796,126.29077 223.22487,126.17382 224.59708,125.2207 L 226.05456,124.20847 L 225.20837,124.13395 C 224.74305,124.09303 223.96101,124.10169 223.47065,124.15336 C 222.62458,124.24235 222.57116,124.19324 222.42942,123.19676 L 222.27998,122.14617 L 224.48728,121.51116 C 225.70119,121.16195 226.8173,120.85884 226.96754,120.83761 C 227.14409,120.81263 227.52012,122.995 228.03282,127.02208 L 228.82503,133.24527 L 228.22113,134.09704 C 227.70985,134.81814 227.39492,134.98044 226.167,135.15511 L 224.71677,135.36139 L 224.37395,132.95133 z"
       id="path3173"
       inkscape:export-filename="/home/jtolds/todlo/apps/todlo/static/logo.png"
       inkscape:export-xdpi="196.09338"
       inkscape:export-ydpi="196.09338" />
    <path
       style="fill:#ff7f22;fill-opacity:1;stroke:#ff7f22;stroke-width:0.67797166;stroke-miterlimit:4;stroke-dasharray:none;stroke-opacity:1"
       d="M 338.64361,91.515509 C 338.59208,91.17825 336.46359,82.739729 333.91378,72.763371 C 331.36382,62.786898 329.31612,54.571634 329.36321,54.507001 C 329.41031,54.442368 330.74175,53.930577 332.32188,53.369443 L 335.19494,52.349247 L 335.99921,54.483303 C 338.73055,61.730402 339.48557,63.470037 339.59375,62.765061 C 339.65393,62.373563 339.57164,59.596914 339.41097,56.594613 L 339.11879,51.135892 L 340.10763,50.995237 L 341.09646,50.854582 L 342.62238,55.998525 C 343.46172,58.82773 344.2569,61.291645 344.38964,61.47382 C 344.5224,61.656129 344.60283,59.038355 344.56841,55.656523 L 344.50568,49.50776 L 345.62585,49.532634 C 346.24192,49.546351 346.76464,49.571977 346.78755,49.589537 C 346.95653,49.719307 353.06277,88.745035 352.93967,88.908953 C 352.62855,89.323273 352.17232,88.61161 349.63631,83.755427 C 348.22156,81.046282 347.0143,78.784789 346.95359,78.729602 C 346.64911,78.453113 346.77719,79.304448 347.79062,84.296401 C 348.39519,87.273772 348.88042,89.727951 348.86904,89.749977 C 348.85765,89.772003 348.48751,89.92258 348.04665,90.084447 L 347.24486,90.378872 L 345.45525,85.403097 C 344.47102,82.666405 343.54905,80.201762 343.40632,79.926233 C 343.06473,79.266605 343.08202,80.582104 343.49481,86.648065 L 343.81852,91.406002 L 341.27797,91.767378 C 338.82723,92.115979 338.73419,92.107026 338.64361,91.515509 L 338.64361,91.515509 z"
       id="path3175"
       inkscape:export-filename="/home/jtolds/todlo/apps/todlo/static/logo.png"
       inkscape:export-xdpi="196.09338"
       inkscape:export-ydpi="196.09338" />
    <path
       style="fill:#ff7f22;fill-opacity:1;stroke:#ff7f22;stroke-width:0.67797166;stroke-miterlimit:4;stroke-dasharray:none;stroke-opacity:1"
       d="M 350.02539,115.84523 C 348.27272,115.59587 348.03123,115.1421 347.94043,111.92716 C 347.8961,110.35706 347.87808,108.78802 347.90022,108.44014 C 347.98044,107.18528 347.49912,107.92827 346.28582,110.93248 C 344.90791,114.34415 344.60007,114.39163 344.59967,111.19218 C 344.59928,108.82367 344.19332,107.55072 343.63462,108.16666 C 343.04121,108.82068 342.69977,110.09448 342.69423,111.67414 L 342.68913,113.14991 L 341.73342,111.76917 C 340.92803,110.60549 340.72825,110.03964 340.46246,108.17112 C 339.74926,103.15714 341.1583,100.77317 345.20883,100.14127 C 348.51411,99.625505 352.52662,101.02751 354.2356,103.29502 C 356.42114,106.19474 355.22446,113.24141 352.20124,115.2751 C 351.62049,115.66573 351.09049,115.98175 351.02332,115.97747 C 350.95617,115.97333 350.50709,115.91367 350.02539,115.84523 L 350.02539,115.84523 z"
       id="path3177"
       inkscape:export-filename="/home/jtolds/todlo/apps/todlo/static/logo.png"
       inkscape:export-xdpi="196.09338"
       inkscape:export-ydpi="196.09338" />
    <path
       style="fill:#ff7f22;fill-opacity:1;stroke:#ff7f22;stroke-width:0.67797166;stroke-miterlimit:4;stroke-dasharray:none;stroke-opacity:1"
       d="M 300.13798,122.79976 C 289.53517,122.40133 278.92299,114.21879 275.00128,103.41832 C 273.86666,100.29351 273.05244,94.572267 273.31206,91.548532 C 274.17576,81.486958 280.66737,74.63351 292.0934,71.720407 C 305.1666,68.387288 315.10744,72.728297 319.3237,83.611222 C 320.41205,86.420346 321.37548,93.133731 321.18725,96.595852 C 320.9986,100.06557 320.24713,103.93445 319.07267,107.48427 C 317.70981,111.60351 316.53368,113.96394 314.53106,116.59833 C 311.03344,121.19914 306.74254,123.04802 300.13798,122.79976 L 300.13798,122.79976 z M 309.96323,116.55712 C 310.88372,116.12282 311.85239,115.4524 312.11591,115.06731 C 312.61277,114.34115 312.96818,112.90648 312.58687,113.1663 C 309.67655,115.14928 308.22812,116.00271 306.71419,116.62675 C 305.70129,117.04406 304.76989,117.50086 304.64447,117.64169 C 304.16663,118.17806 308.32491,117.33019 309.96323,116.55712 L 309.96323,116.55712 z M 308.19202,113.65955 C 309.91879,112.55122 310.81881,111.66485 311.34305,110.55638 C 312.02405,109.11621 311.69124,109.03824 310.05473,110.25439 C 307.88694,111.86522 305.24942,113.04215 303.01765,113.39439 C 301.39293,113.6507 301.15364,113.7565 301.21538,114.19051 C 301.43715,115.74961 305.40627,115.44758 308.19202,113.65955 L 308.19202,113.65955 z M 283.05421,110.84101 C 281.34053,108.24287 279.91907,105.25926 278.66858,101.63569 C 278.21729,100.3281 277.74126,99.168109 277.6107,99.058076 C 277.18024,98.695142 277.53094,102.6068 278.10414,104.56158 C 278.76566,106.81757 279.81107,108.82323 281.13247,110.37164 C 282.25733,111.68984 284.05855,113.27422 284.38006,113.22849 C 284.50517,113.21069 283.90847,112.13634 283.05421,110.84101 L 283.05421,110.84101 z M 301.95269,109.34876 C 306.21132,107.33944 309.30639,102.82794 309.54754,98.27823 C 309.83293,92.896637 306.87166,88.258995 302.16733,86.719961 C 300.63582,86.219046 299.86445,86.14579 297.88417,86.313386 C 294.90732,86.56535 292.95994,87.242546 290.68259,88.817879 C 286.26222,91.875756 284.53157,97.196268 286.15814,102.72718 C 288.31625,110.06541 294.7329,112.75539 301.95269,109.34876 z M 286.25049,110.79327 C 286.23367,110.675 285.90083,110.12698 285.5107,109.57575 C 284.3685,107.96131 283.22456,105.28993 281.99868,101.37525 C 280.89567,97.852601 280.84328,97.749115 280.5895,98.589712 C 280.42214,99.144371 280.45996,100.35766 280.69339,101.91688 C 280.99617,103.93861 281.28361,104.81165 282.32498,106.87171 C 283.57923,109.35278 285.12757,111.17268 285.89154,111.06401 C 286.1058,111.03354 286.26733,110.91167 286.25049,110.79327 L 286.25049,110.79327 z M 308.91511,85.439924 C 308.46095,84.110144 307.84598,83.367647 306.33801,82.32842 C 304.84099,81.296812 303.20719,80.946175 301.60273,81.31218 L 300.60914,81.538836 L 301.94528,82.088359 C 302.68005,82.390612 304.52547,83.470177 306.04622,84.487589 C 307.56681,85.504886 308.90073,86.329602 309.01046,86.320157 C 309.12019,86.310711 309.07727,85.914568 308.91511,85.439924 L 308.91511,85.439924 z M 313.17293,81.622447 C 312.25373,79.778109 310.03039,77.821937 307.43397,76.573498 C 304.9284,75.368701 302.89633,74.944054 300.98348,75.225595 L 299.73722,75.40903 L 301.36021,76.050464 C 307.03346,78.292879 307.8642,78.702689 310.04652,80.335721 C 311.39837,81.347164 312.6957,82.5781 313.10885,83.241107 C 313.78821,84.331361 313.8246,84.351249 313.805,83.620347 C 313.79358,83.196302 313.50914,82.297221 313.17293,81.622447 L 313.17293,81.622447 z"
       id="path3179"
       inkscape:export-filename="/home/jtolds/todlo/apps/todlo/static/logo.png"
       inkscape:export-xdpi="196.09338"
       inkscape:export-ydpi="196.09338" />
    <path
       style="fill:#ff7f22;fill-opacity:1;stroke:#ff7f22;stroke-width:0.67797166;stroke-miterlimit:4;stroke-dasharray:none;stroke-opacity:1"
       d="M 165.81098,133.9457 C 164.86849,129.15211 164.13539,125.17966 164.18181,125.118 C 164.22808,125.05622 165.89667,124.80888 167.88972,124.56825 L 171.51348,124.13086 L 170.55277,125.59479 C 170.02428,126.39996 169.07289,127.47113 168.43844,127.97526 L 167.28468,128.89183 L 168.55413,129.08516 C 169.32967,129.20316 170.38132,129.13629 171.25695,128.91326 L 172.69049,128.54829 L 172.62328,129.46808 C 172.44478,131.9134 171.48697,133.27255 169.38133,134.06868 C 168.56772,134.37629 167.98388,134.74517 168.06187,134.90254 C 168.39161,135.56741 171.03122,136.41184 172.50928,136.32513 L 174.016,136.23681 L 174.25092,137.9095 C 174.38013,138.82943 174.4751,140.05362 174.46215,140.62987 L 174.43863,141.67767 L 170.98147,142.16942 L 167.5243,142.66118 L 165.81098,133.9457 z"
       id="path3181"
       inkscape:export-filename="/home/jtolds/todlo/apps/todlo/static/logo.png"
       inkscape:export-xdpi="196.09338"
       inkscape:export-ydpi="196.09338" />
    <text
       xml:space="preserve"
       style="font-size:108.47546386999999868px;font-style:normal;font-variant:normal;font-weight:normal;font-stretch:normal;fill:#ffffff;fill-opacity:1;stroke:none;stroke-width:1px;stroke-linecap:butt;stroke-linejoin:miter;stroke-opacity:1;font-family:Burnstown Dam;-inkscape-font-specification:Burnstown Dam"
       x="25.538902"
       y="166.13066"
       id="text2383"
       transform="matrix(0.9900344,-0.1408257,0.1408257,0.9900344,0,0)"
       inkscape:export-filename="/home/jtolds/todlo/apps/todlo/static/logo.png"
       inkscape:export-xdpi="196.09338"
       inkscape:export-ydpi="196.09338"><tspan
         sodipodi:role="line"
         id="tspan2385"
         x="25.538902"
         y="166.13066">ToDlo!</tspan></text>
    <text
       xml:space="preserve"
       style="font-size:16px;font-style:normal;font-variant:normal;font-weight:normal;font-stretch:normal;fill:#ffffff;fill-opacity:1;stroke:none;stroke-width:1px;stroke-linecap:butt;stroke-linejoin:miter;stroke-opacity:1;font-family:Minya Nouvelle;-inkscape-font-specification:Minya Nouvelle"
       x="145.50299"
       y="161.28181"
       id="text3200"
       inkscape:export-filename="/home/jtolds/todlo/apps/todlo/static/logo.png"
       inkscape:export-xdpi="196.09338"
       inkscape:export-ydpi="196.09338"><tspan
         sodipodi:role="line"
         id="tspan3202"
         x="145.50299"
         y="161.28181">It's like todo, with an L!</tspan></text>
    <path
       style="fill:#ff7f22;fill-opacity:1;stroke:#ff7f22;stroke-width:0.2339664;stroke-miterlimit:4;stroke-dasharray:none;stroke-opacity:1"
       d="M 74.848669,246.86305 L 74.862738,246.32118 L 76.114948,245.95748 C 76.803621,245.75746 77.341179,245.56924 77.309483,245.53914 C 77.277834,245.50909 76.710631,245.4561 76.049124,245.42134 L 74.846348,245.35823 L 76.063227,244.76127 C 78.425411,243.60247 78.659369,243.48131 78.615668,243.43988 C 78.59137,243.41689 77.750704,243.59231 76.747529,243.82978 C 75.744308,244.06725 74.886806,244.26254 74.841947,244.26374 C 74.797088,244.26494 74.745588,243.70946 74.727467,243.02937 C 74.709346,242.34929 74.713417,241.79237 74.736572,241.79176 C 74.75968,241.79114 77.852674,241.32325 81.609907,240.75194 C 85.367141,240.18069 88.499052,239.71171 88.569732,239.70983 C 88.66104,239.7074 88.721617,239.91666 88.779213,240.43387 C 88.823811,240.83399 88.840579,241.18218 88.816446,241.20758 C 88.792362,241.23304 88.003162,241.4567 87.062711,241.70462 C 86.122212,241.95255 85.331874,242.17742 85.306378,242.20436 C 85.280881,242.23125 85.766349,242.26648 86.38528,242.28266 C 87.004162,242.2988 87.821489,242.3279 88.201587,242.34731 L 88.8926,242.38264 L 88.902424,242.75133 C 88.913337,243.16091 88.930266,243.15152 87.636181,243.45445 C 87.324034,243.52755 87.034369,243.61869 86.992558,243.65697 C 86.950701,243.6953 87.392845,243.81215 87.97509,243.9167 L 89.033704,244.10672 L 89.055922,244.94056 L 89.078139,245.77436 L 88.580305,245.84422 C 87.774349,245.9573 75.278606,247.39314 75.046546,247.39933 C 74.848775,247.4046 74.835504,247.36858 74.848669,246.86305 L 74.848669,246.86305 z M 81.548973,243.51053 C 81.714589,243.31738 81.713471,243.30706 81.505435,243.10983 L 81.291877,242.90735 L 81.089404,243.12091 C 80.892166,243.32895 80.8916,243.33931 81.067313,243.52336 C 81.166511,243.62731 81.277167,243.71152 81.313278,243.71056 C 81.34939,243.70959 81.455451,243.61961 81.548973,243.51053 L 81.548973,243.51053 z"
       id="path3196"
       inkscape:export-filename="/home/jtolds/todlo/apps/todlo/static/logo-small.png"
       inkscape:export-xdpi="206.14043"
       inkscape:export-ydpi="206.14043" />
    <path
       style="fill:#ff7f22;fill-opacity:1;stroke:#ff7f22;stroke-width:0.2339664;stroke-miterlimit:4;stroke-dasharray:none;stroke-opacity:1"
       d="M 79.372406,256.96027 C 79.281323,253.54197 79.219295,250.15824 79.234585,249.44085 L 79.262319,248.13645 L 79.700901,248.18815 C 79.942122,248.21659 80.154368,248.25213 80.172602,248.26709 C 80.190789,248.2821 80.298557,248.85523 80.412082,249.54077 C 80.525607,250.22632 80.639092,250.80674 80.664256,250.83059 C 80.710742,250.87467 80.75951,250.31394 80.833948,248.87906 C 80.862505,248.32932 80.915969,248.06782 81.007594,248.02985 C 81.080468,247.99963 81.163921,247.99755 81.19312,248.02528 C 81.222365,248.05296 81.324458,248.50621 81.420023,249.03248 C 81.51559,249.55879 81.610979,249.97126 81.632014,249.94908 C 81.664887,249.9144 81.894135,248.24977 81.89358,248.04972 C 81.893471,248.0105 82.273143,247.96823 82.737261,247.95586 L 83.581112,247.93337 L 83.677059,249.33479 C 83.729802,250.10556 83.862122,253.21812 83.97113,256.25158 C 84.080091,259.28505 84.200144,262.03385 84.237857,262.36 L 84.306415,262.95308 L 83.69626,262.96934 L 83.086105,262.9856 L 82.822102,261.20796 C 82.676919,260.23022 82.527965,259.3991 82.491047,259.361 C 82.454129,259.3229 82.368933,260.07474 82.30175,261.03177 C 82.234519,261.98877 82.160124,262.84728 82.136415,262.93952 C 82.10834,263.04886 81.998884,263.10978 81.821928,263.11449 C 81.503846,263.12297 81.548346,263.26114 81.138095,260.99107 C 80.978044,260.10534 80.833157,259.36712 80.816144,259.35053 C 80.754198,259.29016 80.693697,259.70216 80.530866,261.29279 C 80.353101,263.02921 80.304445,263.15493 79.805151,263.16823 L 79.53801,263.17535 L 79.372406,256.96027 z"
       id="path3198"
       inkscape:export-filename="/home/jtolds/todlo/apps/todlo/static/logo-small.png"
       inkscape:export-xdpi="206.14043"
       inkscape:export-ydpi="206.14043" />
    <path
       style="fill:#ff7f22;fill-opacity:1;stroke:#ff7f22;stroke-width:0.2339664;stroke-miterlimit:4;stroke-dasharray:none;stroke-opacity:1"
       d="M 101.24264,261.11165 C 99.110173,260.78491 97.270066,259.73924 95.717666,257.97206 C 94.174194,256.21494 93.404672,254.51911 93.149057,252.31139 C 92.814474,249.42203 93.640686,246.92634 95.457699,245.33798 C 96.183113,244.70385 97.673639,243.917 98.685478,243.63403 C 100.4406,243.14323 102.62741,243.04452 104.21526,243.38436 C 106.68721,243.9135 108.4635,245.60141 109.2346,248.1541 C 109.54766,249.1905 109.64239,251.91307 109.40819,253.14404 C 108.92915,255.66198 107.68798,258.24614 106.28922,259.63795 C 104.91199,261.0083 103.41713,261.4448 101.24264,261.11165 L 101.24264,261.11165 z M 104.78568,259.35989 C 105.21327,259.21523 105.47432,259.06045 105.63888,258.85394 C 106.06611,258.31786 105.93292,258.24876 105.21544,258.63435 C 104.85612,258.82747 104.19148,259.10366 103.73846,259.24816 C 103.2854,259.39261 102.89483,259.53179 102.87052,259.55748 C 102.73748,259.69781 104.24716,259.5421 104.78568,259.35989 L 104.78568,259.35989 z M 104.51025,258.17077 C 105.03852,257.88332 105.30209,257.66996 105.50124,257.36868 C 105.65044,257.14292 105.75134,256.9381 105.72545,256.91356 C 105.69957,256.88902 105.31957,257.06115 104.88104,257.29612 C 103.98008,257.77873 103.31914,257.97281 102.45686,258.00796 C 101.9484,258.02867 101.86499,258.05687 101.86898,258.20669 C 101.87826,258.55504 102.24928,258.6853 103.05023,258.62141 C 103.67994,258.57121 103.89815,258.50384 104.51025,258.17077 L 104.51025,258.17077 z M 95.930051,256.63723 C 95.524618,255.93405 94.965866,254.3589 94.673314,253.0944 C 94.538787,252.51309 94.3959,252.05896 94.355782,252.08526 C 94.228345,252.16879 94.33107,254.13905 94.491163,254.68199 C 94.722271,255.46579 95.191768,256.28598 95.693648,256.78256 C 95.942353,257.02866 96.163437,257.21141 96.184972,257.18865 C 96.206555,257.16593 96.091811,256.91776 95.930051,256.63723 z M 101.78197,256.72781 C 103.54452,256.30679 104.92325,255.01025 105.31124,253.40908 C 105.54158,252.45832 105.42677,251.29235 105.02344,250.48706 C 104.39703,249.23637 103.3004,248.56279 101.81772,248.51795 C 100.32478,248.47281 99.153295,248.92363 98.231591,249.89796 C 97.308248,250.87407 96.950561,252.1367 97.178508,253.61525 C 97.454605,255.40586 98.39521,256.49178 99.927539,256.78897 C 100.63701,256.9266 100.99988,256.91459 101.78197,256.72781 L 101.78197,256.72781 z M 96.73236,256.0781 C 96.290426,255.25938 96.036951,254.32834 95.645641,252.08572 L 95.587799,251.75425 L 95.459667,252.0155 C 95.121312,252.70541 95.278177,253.93008 95.900466,255.45663 C 96.140167,256.04469 96.561502,256.53479 96.821393,256.52787 C 96.94928,256.52446 96.935378,256.45419 96.73236,256.0781 L 96.73236,256.0781 z M 105.66106,248.60624 C 105.45824,247.65452 104.44506,246.90153 103.4046,246.92925 L 102.95054,246.94135 L 103.53049,247.30225 C 103.84945,247.50074 104.4394,247.9541 104.84152,248.30977 C 105.24359,248.66544 105.60951,248.95747 105.65467,248.9588 C 105.69979,248.96012 105.70268,248.80145 105.66106,248.60624 L 105.66106,248.60624 z M 107.39729,247.9441 C 107.25223,247.26796 106.92872,246.75324 106.25413,246.12534 C 105.43572,245.36355 104.44152,244.89942 103.54449,244.86041 L 102.89275,244.83204 L 104.14823,245.50991 C 105.58205,246.28414 106.53815,247.05921 107.07949,247.8861 C 107.2799,248.19223 107.45491,248.43098 107.46848,248.41667 C 107.48201,248.40241 107.44999,248.18976 107.39729,247.9441 L 107.39729,247.9441 z"
       id="path3200"
       inkscape:export-filename="/home/jtolds/todlo/apps/todlo/static/logo-small.png"
       inkscape:export-xdpi="206.14043"
       inkscape:export-ydpi="206.14043" />
    <path
       style="fill:#ff7f22;fill-opacity:1;stroke:#ff7f22;stroke-width:0.2339664;stroke-miterlimit:4;stroke-dasharray:none;stroke-opacity:1"
       d="M 118.92493,261.1026 C 118.94939,261.01034 119.0115,260.41977 119.06297,259.79016 C 119.13329,258.92975 119.10932,257.29935 118.96649,253.22507 C 118.63027,243.63365 118.54141,239.59937 118.66356,239.47057 C 118.72412,239.4067 118.97817,239.29639 119.22816,239.22541 L 119.68262,239.09637 L 119.87622,239.95907 C 119.98272,240.43355 120.12063,241.0487 120.18274,241.32603 C 120.24481,241.60337 120.31418,241.81071 120.33685,241.7868 C 120.37323,241.74842 120.59025,239.47353 120.58687,239.16608 C 120.58616,239.10066 120.6854,239.04447 120.80744,239.04121 C 121.01293,239.03574 121.05404,239.12569 121.36337,240.2575 C 121.54708,240.92971 121.70153,241.63486 121.70658,241.82449 C 121.7119,242.02404 121.75418,242.14415 121.80691,242.10961 C 121.95486,242.01261 122.14225,241.18179 122.27625,240.02885 C 122.47822,238.29085 122.5453,238.16796 123.13579,238.45364 C 123.31665,238.54118 123.47259,238.73503 123.58899,239.01709 C 123.74932,239.40551 123.7683,239.72977 123.78489,242.36912 C 123.79504,243.97621 123.76809,246.34144 123.72511,247.62522 C 123.57763,252.02638 123.56524,255.38953 123.68645,258.12023 L 123.80782,260.85355 L 123.41559,260.86526 C 123.19983,260.87176 122.92768,260.90541 122.81083,260.94008 C 122.60653,261.00071 122.59772,260.97946 122.58199,260.3889 C 122.54517,259.00707 122.35815,256.8617 122.29028,257.04256 C 122.25133,257.14635 122.06466,258.07067 121.87546,259.09654 C 121.68625,260.12241 121.51875,260.97582 121.50329,260.99299 C 121.48779,261.01011 121.15061,261.05743 120.754,261.09805 L 120.0329,261.17199 L 119.99015,259.85061 L 119.94741,258.52923 L 119.5934,259.89502 C 119.29904,261.03066 119.20914,261.26162 119.05992,261.2656 C 118.93381,261.26896 118.89367,261.22055 118.92493,261.1026 L 118.92493,261.1026 z M 121.72804,256.91936 C 121.72719,256.88774 121.6449,256.81387 121.54513,256.7552 C 121.40104,256.67048 121.31996,256.68092 121.15099,256.80615 L 120.93827,256.96376 L 121.16153,257.13489 C 121.37107,257.29549 121.39542,257.29591 121.5572,257.14144 C 121.65201,257.05095 121.72888,256.95098 121.72804,256.91936 L 121.72804,256.91936 z M 121.52247,244.10792 C 121.71292,243.90703 121.55635,243.6157 121.2174,243.54014 C 121.03996,243.50063 120.91938,243.54106 120.78165,243.68628 L 120.59129,243.88712 L 120.91967,244.07548 C 121.31418,244.30178 121.33748,244.30303 121.52247,244.10792 L 121.52247,244.10792 z"
       id="path3202"
       inkscape:export-filename="/home/jtolds/todlo/apps/todlo/static/logo-small.png"
       inkscape:export-xdpi="206.14043"
       inkscape:export-ydpi="206.14043" />
    <path
       style="fill:#ff7f22;fill-opacity:1;stroke:#ff7f22;stroke-width:0.2339664;stroke-miterlimit:4;stroke-dasharray:none;stroke-opacity:1"
       d="M 114.07656,246.608 L 114.05992,245.98326 L 114.67084,245.69188 C 115.00688,245.53163 115.37728,245.36804 115.49404,245.32828 C 115.61075,245.28856 115.70547,245.22607 115.70449,245.18935 C 115.70285,245.12789 114.6056,244.72456 114.08743,244.59494 C 113.89309,244.54638 113.87005,244.49494 113.90564,244.18987 C 113.92804,243.99768 113.96136,243.38592 113.9797,242.83036 L 114.01298,241.8203 L 115.4034,241.61909 C 116.16813,241.50841 116.86332,241.3966 116.94833,241.37055 C 117.06631,241.33436 117.11451,241.404 117.15198,241.66462 C 117.19725,241.97938 117.15539,242.05291 116.61671,242.60455 C 116.29528,242.93366 116.03362,243.25202 116.03522,243.31198 C 116.03974,243.4815 116.48525,243.63005 116.95208,243.61761 L 117.3756,243.60632 L 117.41742,245.17573 L 117.45923,246.74513 L 117.00748,246.75773 C 116.61733,246.7686 115.58036,246.93244 114.42457,247.16583 L 114.09321,247.23275 L 114.07656,246.608 z"
       id="path3204"
       inkscape:export-filename="/home/jtolds/todlo/apps/todlo/static/logo-small.png"
       inkscape:export-xdpi="206.14043"
       inkscape:export-ydpi="206.14043" />
    <path
       style="fill:#ff7f22;fill-opacity:1;stroke:#ff7f22;stroke-width:0.2339664;stroke-miterlimit:4;stroke-dasharray:none;stroke-opacity:1"
       d="M 125.17765,257.78194 L 125.10434,255.03073 L 125.72555,254.7196 C 126.5186,254.3224 127.58075,253.22603 127.91665,252.45792 C 128.41619,251.31556 128.39307,249.9996 127.85402,248.89534 C 127.54799,248.26843 126.74896,247.45735 125.93391,246.94627 C 125.30914,246.55455 125.26447,246.50332 125.19226,246.09621 C 125.07899,245.45738 125.11988,242.97752 125.26938,241.42089 C 125.37645,240.30579 125.4274,240.06055 125.55236,240.05816 C 125.63616,240.05658 126.02951,240.187 126.42644,240.34798 C 129.19985,241.47298 131.36633,244.32341 132.29185,248.06502 C 132.55836,249.14256 132.67812,251.51323 132.5231,252.64347 C 132.03782,256.18156 129.85182,258.94912 126.64215,260.08894 C 126.16295,260.25913 125.65392,260.42866 125.51092,260.46575 L 125.25095,260.53316 L 125.17765,257.78194 z M 128.78864,246.71213 C 128.29192,245.48523 127.0016,244.70854 126.36461,245.25306 L 126.15573,245.43163 L 126.70499,245.68246 C 127.03361,245.83248 127.59453,246.24163 128.10122,246.70086 C 128.56704,247.12299 128.9593,247.41446 128.9729,247.34847 C 128.98654,247.28248 128.90359,246.99615 128.78864,246.71213 z M 130.13148,245.45452 C 129.70582,244.27857 128.38085,243.07969 127.31902,242.9096 C 126.95826,242.85186 126.11924,243.10836 126.12369,243.27507 C 126.12481,243.31712 126.31128,243.37431 126.53811,243.40221 C 127.07547,243.46817 128.01525,243.88726 128.38697,244.2266 C 128.54856,244.37415 129.03336,244.88485 129.46426,245.36145 C 130.29509,246.28052 130.43769,246.30041 130.13153,245.45452 L 130.13148,245.45452 z"
       id="path3206"
       inkscape:export-filename="/home/jtolds/todlo/apps/todlo/static/logo-small.png"
       inkscape:export-xdpi="206.14043"
       inkscape:export-ydpi="206.14043" />
    <path
       style="fill:#ff7f22;fill-opacity:1;stroke:#ff7f22;stroke-width:0.2339664;stroke-miterlimit:4;stroke-dasharray:none;stroke-opacity:1"
       d="M 137.72288,260.77889 C 137.71862,260.69466 137.80861,256.47918 137.92293,251.41117 L 138.13071,242.19663 L 138.585,242.18452 L 139.0393,242.17242 L 139.07774,243.61501 C 139.09888,244.40844 139.14741,245.02475 139.18562,244.98465 C 139.22382,244.9445 139.37128,244.3231 139.51328,243.60368 L 139.77151,242.29568 L 140.05949,242.25912 C 140.34495,242.22291 140.34807,242.22742 140.41892,242.77307 C 140.45821,243.07582 140.53057,243.76068 140.57968,244.29493 C 140.62874,244.82917 140.69894,245.24662 140.73565,245.22257 C 140.77236,245.19846 140.90812,244.57508 141.03732,243.83724 C 141.16651,243.0994 141.30069,242.44676 141.33547,242.38699 C 141.37898,242.31225 141.60954,242.29379 142.0734,242.32791 L 142.74804,242.37758 L 142.71667,242.9641 C 142.69942,243.28666 142.59424,247.32007 142.4829,251.92721 C 142.27862,260.38432 142.27436,260.45081 141.93647,260.46422 C 141.80123,260.46955 141.77702,260.39511 141.53076,259.21664 C 141.4248,258.70979 141.31441,258.31925 141.28538,258.34876 C 141.2564,258.37833 141.15981,258.88359 141.07076,259.47155 L 140.90887,260.54065 L 140.15757,260.63529 C 139.6477,260.69957 139.38504,260.69763 139.3403,260.62935 C 139.30404,260.57405 139.13902,259.99716 138.9736,259.3474 C 138.80823,258.69769 138.64397,258.20054 138.60868,258.24263 C 138.57338,258.28476 138.48335,258.79201 138.40859,259.36985 C 138.33384,259.94775 138.25364,260.5131 138.23035,260.62621 C 138.1781,260.88042 137.7348,261.0138 137.72288,260.77889 L 137.72288,260.77889 z M 140.26892,257.84161 C 140.43458,257.64846 140.43346,257.63814 140.22538,257.44086 L 140.01182,257.23839 L 139.80935,257.45194 C 139.61211,257.66003 139.61154,257.67039 139.78726,257.85444 C 139.88645,257.95834 139.99716,258.04255 140.03322,258.04159 C 140.06933,258.04063 140.17539,257.95064 140.26892,257.84161 L 140.26892,257.84161 z"
       id="path3208"
       inkscape:export-filename="/home/jtolds/todlo/apps/todlo/static/logo-small.png"
       inkscape:export-xdpi="206.14043"
       inkscape:export-ydpi="206.14043" />
    <path
       style="fill:#ff7f22;fill-opacity:1;stroke:#ff7f22;stroke-width:0.2339664;stroke-miterlimit:4;stroke-dasharray:none;stroke-opacity:1"
       d="M 143.28817,258.74346 C 143.2742,258.21896 143.39388,255.3445 143.4313,255.30497 C 143.46937,255.26483 148.93725,254.47508 149.24215,254.46569 C 149.39,254.46114 149.45764,254.51551 149.46099,254.64148 C 149.4649,254.78794 149.2847,254.88884 148.54663,255.1536 C 148.041,255.33498 147.59291,255.51642 147.55073,255.55686 C 147.5086,255.59731 147.93835,255.64947 148.5057,255.67278 C 149.52446,255.71464 149.67692,255.7674 149.6883,256.08208 C 149.69273,256.20432 149.41767,256.29727 148.34548,256.53592 C 146.74202,256.89288 146.49601,257.00101 147.28706,257.00128 C 147.60116,257.00143 148.34687,257.01498 148.94418,257.03141 L 150.03013,257.06136 L 150.22664,257.71133 C 150.33465,258.06884 150.39978,258.38588 150.37128,258.41589 C 150.34283,258.44595 149.09206,258.5773 147.59181,258.70781 C 146.09157,258.83831 144.51166,258.98142 144.08098,259.0259 L 143.29785,259.10673 L 143.28817,258.74346 z"
       id="path3210"
       inkscape:export-filename="/home/jtolds/todlo/apps/todlo/static/logo-small.png"
       inkscape:export-xdpi="206.14043"
       inkscape:export-ydpi="206.14043" />
    <path
       style="fill:#ff7f22;fill-opacity:1;stroke:#ff7f22;stroke-width:0.2339664;stroke-miterlimit:4;stroke-dasharray:none;stroke-opacity:1"
       d="M 135.32602,259.9918 L 135.30365,259.15202 L 135.77329,258.9166 C 136.0316,258.78712 136.24207,258.64876 136.24102,258.60914 C 136.23996,258.56952 136.00226,258.49066 135.71283,258.43396 C 135.19314,258.33209 135.18644,258.32652 135.17735,257.98533 C 135.16868,257.65995 135.19966,257.62289 135.70773,257.35031 L 136.24737,257.06083 L 135.96021,257.00187 C 135.8023,256.96947 135.53385,256.94156 135.3637,256.93992 C 135.07012,256.93702 135.05375,256.91808 135.0445,256.57085 L 135.03474,256.20478 L 135.81655,256.07423 C 136.2465,256.00243 136.6411,255.94258 136.69345,255.94123 C 136.75496,255.93964 136.79772,256.70267 136.81449,258.10353 L 136.84039,260.26831 L 136.59972,260.53648 C 136.39597,260.76351 136.2816,260.80672 135.85373,260.81812 L 135.3484,260.83158 L 135.32602,259.9918 z"
       id="path3212"
       inkscape:export-filename="/home/jtolds/todlo/apps/todlo/static/logo-small.png"
       inkscape:export-xdpi="206.14043"
       inkscape:export-ydpi="206.14043" />
    <path
       style="fill:#ff7f22;fill-opacity:1;stroke:#ff7f22;stroke-width:0.2339664;stroke-miterlimit:4;stroke-dasharray:none;stroke-opacity:1"
       d="M 176.13722,250.29776 C 176.13287,250.1801 175.73631,247.20308 175.25603,243.68219 C 174.77571,240.16127 174.39803,237.26397 174.41673,237.24367 C 174.43543,237.22337 174.9121,237.10048 175.47597,236.97049 L 176.50122,236.73417 L 176.6927,237.49754 C 177.34297,240.08991 177.53313,240.71612 177.59805,240.47871 C 177.63414,240.34686 177.71555,239.39169 177.779,238.35607 L 177.89435,236.47311 L 178.23891,236.46393 L 178.58346,236.45474 L 178.90351,238.2785 C 179.07956,239.28158 179.2549,240.15768 179.29321,240.22537 C 179.33153,240.29312 179.46245,239.39884 179.58417,238.23808 L 179.80543,236.12761 L 180.18847,236.18036 C 180.39914,236.20939 180.57734,236.23881 180.58449,236.24574 C 180.6373,236.2969 181.18994,249.91724 181.14127,249.96857 C 181.01825,250.09833 180.88994,249.83634 180.21224,248.07136 C 179.83418,247.08672 179.50958,246.26375 179.49094,246.24243 C 179.39747,246.13562 179.40777,246.43254 179.55812,248.18395 C 179.64784,249.22856 179.7173,250.08909 179.71252,250.09619 C 179.70775,250.10329 179.57491,250.1403 179.41738,250.17839 L 179.13087,250.24767 L 178.71379,248.47116 C 178.48441,247.49408 178.26563,246.61272 178.22758,246.51263 C 178.13652,246.273 178.09051,246.72468 177.99254,248.82058 L 177.91566,250.46453 L 177.03041,250.48812 C 176.17646,250.51087 176.14492,250.50413 176.13722,250.29776 L 176.13722,250.29776 z"
       id="path3214"
       inkscape:export-filename="/home/jtolds/todlo/apps/todlo/static/logo-small.png"
       inkscape:export-xdpi="206.14043"
       inkscape:export-ydpi="206.14043" />
    <path
       style="fill:#ff7f22;fill-opacity:1;stroke:#ff7f22;stroke-width:0.2339664;stroke-miterlimit:4;stroke-dasharray:none;stroke-opacity:1"
       d="M 179.07869,259.08813 C 178.48767,258.93344 178.42279,258.76834 178.51859,257.66257 C 178.56538,257.12254 178.62115,256.58391 178.64248,256.46552 C 178.71952,256.03848 178.52518,256.2742 177.99061,257.25624 C 177.38352,258.37146 177.27611,258.37559 177.40229,257.2787 C 177.49567,256.46668 177.40675,256.01425 177.19089,256.20335 C 176.96163,256.40414 176.79428,256.82736 176.73002,257.3687 L 176.67,257.87444 L 176.39687,257.36335 C 176.1667,256.9326 176.12055,256.73073 176.1032,256.07964 C 176.05665,254.33253 176.63383,253.57086 178.04743,253.51415 C 179.20095,253.46782 180.52121,254.10689 181.01758,254.95174 C 181.65237,256.03214 180.9639,258.40072 179.84715,258.97857 C 179.63263,259.08956 179.43845,259.17698 179.41559,259.17286 C 179.39274,259.16879 179.24113,259.13061 179.07869,259.08813 L 179.07869,259.08813 z"
       id="path3216"
       inkscape:export-filename="/home/jtolds/todlo/apps/todlo/static/logo-small.png"
       inkscape:export-xdpi="206.14043"
       inkscape:export-ydpi="206.14043" />
    <path
       style="fill:#ff7f22;fill-opacity:1;stroke:#ff7f22;stroke-width:0.2339664;stroke-miterlimit:4;stroke-dasharray:none;stroke-opacity:1"
       d="M 161.70113,259.50276 C 158.08188,258.94755 154.76675,255.72334 153.84867,251.86576 C 153.58306,250.74969 153.5298,248.75611 153.73818,247.72973 C 154.43153,244.3144 156.92764,242.22112 160.95985,241.67353 C 165.57336,241.04697 168.81001,242.92768 169.82581,246.82515 C 170.08802,247.83118 170.15326,250.17078 169.95205,251.35027 C 169.75038,252.53235 169.34001,253.82906 168.79722,254.99968 C 168.16735,256.35808 167.67094,257.12088 166.88038,257.94496 C 165.49964,259.38418 163.95558,259.84862 161.70113,259.50276 L 161.70113,259.50276 z M 165.316,257.75049 C 165.64873,257.63794 166.00729,257.44634 166.11283,257.32473 C 166.31184,257.09539 166.49033,256.61758 166.34934,256.6916 C 165.27331,257.25652 164.74304,257.49192 164.19938,257.64609 C 163.83565,257.74916 163.4983,257.869 163.44975,257.91233 C 163.26475,258.07735 164.72381,257.95084 165.316,257.75049 L 165.316,257.75049 z M 164.82318,256.68718 C 165.45893,256.37539 165.80248,256.10705 166.02597,255.74772 C 166.3163,255.28088 166.20528,255.241 165.59621,255.59333 C 164.78943,256.05999 163.83874,256.35934 163.05971,256.39199 C 162.49258,256.41572 162.40637,256.44254 162.4104,256.59377 C 162.42488,257.13703 163.79754,257.19019 164.82318,256.68718 L 164.82318,256.68718 z M 156.31642,254.72844 C 155.83149,253.77005 155.46196,252.69105 155.17632,251.39941 C 155.07323,250.93331 154.95582,250.51683 154.91541,250.47396 C 154.78216,250.33254 154.74796,251.68742 154.86729,252.38021 C 155.00501,253.17975 155.28423,253.90863 155.67612,254.49165 C 156.00971,254.98798 156.56467,255.60227 156.6767,255.59928 C 156.7203,255.59812 156.55814,255.20624 156.31642,254.72844 L 156.31642,254.72844 z M 162.85433,254.96297 C 164.39366,254.44225 165.63286,253.01776 165.89516,251.4675 C 166.20547,249.63378 165.37335,247.92694 163.82132,247.21358 C 163.31605,246.98138 163.05449,246.92581 162.36897,246.90509 C 161.33846,246.87394 160.6441,247.02922 159.80116,247.47938 C 158.16499,248.3532 157.36161,250.10891 157.70088,252.0693 C 158.15103,254.67028 160.24466,255.84583 162.85433,254.96297 z M 157.41409,254.83826 C 157.41299,254.79705 157.32052,254.59603 157.20853,254.39165 C 156.88069,253.79307 156.59398,252.83208 156.32826,251.4416 C 156.08919,250.19037 156.07532,250.15283 155.95513,250.43099 C 155.87585,250.61454 155.84092,251.03199 155.85938,251.57575 C 155.88337,252.28082 155.94744,252.59147 156.22313,253.33884 C 156.55517,254.23895 157.01413,254.924 157.28034,254.91691 C 157.355,254.91492 157.41519,254.87952 157.41409,254.83826 L 157.41409,254.83826 z M 166.18521,247.04115 C 166.08201,246.56733 165.9005,246.2885 165.42455,245.87268 C 164.95205,245.45991 164.40577,245.27519 163.84126,245.33733 L 163.49168,245.3758 L 163.92806,245.61695 C 164.16803,245.74958 164.75807,246.19255 165.23926,246.60139 C 165.72041,247.01019 166.14516,247.34559 166.18315,247.34669 C 166.22114,247.34778 166.22207,247.21027 166.18521,247.04115 L 166.18521,247.04115 z M 167.79565,245.9005 C 167.55333,245.23191 166.86833,244.47349 166.02749,243.94298 C 165.21606,243.43101 164.53617,243.2052 163.86927,243.2262 L 163.43477,243.23989 L 163.96586,243.52387 C 165.8223,244.51663 166.09092,244.68992 166.77461,245.33593 C 167.19814,245.73606 167.59431,246.20929 167.70977,246.4529 C 167.89963,246.85349 167.91132,246.86175 167.93346,246.6104 C 167.94629,246.46457 167.88427,246.14511 167.79565,245.9005 L 167.79565,245.9005 z"
       id="path3218"
       inkscape:export-filename="/home/jtolds/todlo/apps/todlo/static/logo-small.png"
       inkscape:export-xdpi="206.14043"
       inkscape:export-ydpi="206.14043" />
    <path
       style="fill:#ff7f22;fill-opacity:1;stroke:#ff7f22;stroke-width:0.2339664;stroke-miterlimit:4;stroke-dasharray:none;stroke-opacity:1"
       d="M 115.20952,258.02059 C 115.07566,256.33998 114.98116,254.94916 114.99951,254.92985 C 115.01782,254.9105 115.59963,254.89158 116.29241,254.88777 L 117.55202,254.88089 L 117.16486,255.34484 C 116.95188,255.60001 116.58343,255.92968 116.34601,256.07746 L 115.91428,256.34614 L 116.34186,256.46254 C 116.60308,256.53361 116.96625,256.55221 117.27525,256.51032 L 117.78113,256.44179 L 117.72177,256.75447 C 117.56403,257.58576 117.182,258.0139 116.42869,258.20371 C 116.13762,258.27704 115.92289,258.38046 115.94342,258.43749 C 116.03021,258.67845 116.90182,259.07216 117.41197,259.10079 L 117.93201,259.12999 L 117.9465,259.71272 C 117.95448,260.0332 117.93871,260.45664 117.91152,260.65369 L 117.86209,261.01198 L 116.65745,261.04407 L 115.45281,261.07617 L 115.20952,258.02059 z"
       id="path3220"
       inkscape:export-filename="/home/jtolds/todlo/apps/todlo/static/logo-small.png"
       inkscape:export-xdpi="206.14043"
       inkscape:export-ydpi="206.14043" />
    <text
       xml:space="preserve"
       style="font-size:37.43462371999999760px;font-style:normal;font-variant:normal;font-weight:normal;font-stretch:normal;fill:#ffffff;fill-opacity:1;stroke:none;stroke-width:1px;stroke-linecap:butt;stroke-linejoin:miter;stroke-opacity:1;font-family:Burnstown Dam;-inkscape-font-specification:Burnstown Dam"
       x="66.968246"
       y="264.5072"
       id="text3222"
       transform="matrix(0.9996452,-2.6636069e-2,2.6636069e-2,0.9996452,0,0)"
       inkscape:export-filename="/home/jtolds/todlo/apps/todlo/static/logo-small.png"
       inkscape:export-xdpi="206.14043"
       inkscape:export-ydpi="206.14043"><tspan
         sodipodi:role="line"
         id="tspan3224"
         x="66.968246"
         y="264.5072">ToDlo!</tspan></text>
  </g>
</svg>
